<?xml version="1.0" encoding="utf-8"?>
<!-- Generator: Adobe Illustrator 19.0.0, SVG Export Plug-In . SVG Version: 6.00 Build 0)  -->
<svg version="1.1" id="Layer_1" xmlns="http://www.w3.org/2000/svg" xmlns:xlink="http://www.w3.org/1999/xlink" x="0px" y="0px"
	 viewBox="0 0 800 210" enable-background="new 0 0 800 210" xml:space="preserve">
<style type="text/css">
	.st0{fill-rule:evenodd;clip-rule:evenodd;fill:#FFFFFF;}
	.st1{fill:#FFFFFF;}
</style>
<path class="st0" d="M170.5,5.1c-14.5-6.4-31.8-0.9-39.9,13.1L98.7,73.4l-16.2,28h32.4L170.5,5.1z M3.5,101.5
	c1.8-15.8,15.1-28,31.4-28l55.6,0l-16.2,28H3.5z M170.5,204.9c-14.5,6.4-31.8,0.9-39.9-13.1l-27.8-48.2h32.4L170.5,204.9z
	 M131,136.6H98.7H34.9c-16.2,0-29.6-12.3-31.4-28h111.3L131,136.6z M137.1,77l16.2,28l31.9,55.2c8.1,14.1,4.2,31.8-8.6,41.2L121,105
	L137.1,77z M176.6,8.6c12.8,9.4,16.7,27.1,8.6,41.2l-27.8,48.2l-16.2-28L176.6,8.6z"/>
<path class="st1" d="M324.5,165.7V86.5h24.7v8.4c11.5-14,37-15.2,47.8,0c21.8-20.3,54.4-12,54.4,20v50.8h-28v-48.3
	c0-12.4-13.8-11.1-20.6-4.3v52.6h-28v-48.3c0-13.4-15.6-10.7-22.3-2.5v50.8H324.5z"/>
<polygon class="st1" points="265,165.7 265,126.3 220,50.2 254.6,50.2 280.2,97.9 305.8,50.2 340.4,50.2 295.4,126.3 295.4,165.7 
	"/>
<path class="st1" d="M773.4,57.7v28.9h21.4v23.1h-21.4v25.7c0,6.5,3.5,9.7,10.4,9.7c2.3,0,4.5-0.1,6.4-0.4c2-0.3,4.1-0.8,6.3-1.6
	v21.8c-6.4,2.2-13.5,3.3-21.4,3.3c-3.8,0-7.6-0.4-11.1-1.3c-3.6-0.9-6.7-2.4-9.5-4.5c-2.7-2.1-4.9-4.9-6.6-8.3
	c-1.6-3.5-2.5-7.8-2.5-13.1v-31.3h-12.5V86.5h12.5V64.3L773.4,57.7z"/>
<polygon class="st1" points="702.8,165.7 683.3,135.7 677.4,135.7 677.4,165.7 649.3,165.7 649.3,50.2 677.4,50.2 677.4,114.2 
	683.6,114.2 701,86.5 732.3,86.5 706.6,125.5 733.9,165.7 "/>
<path class="st1" d="M633.5,143.1c0,4.9,4.8,5.7,8.6,4.5v17.3c-10.4,4.3-26.4,3.9-33-6.3c-8.3,6.4-17,9.6-27.5,9.6
	c-14.8,0-27.5-8.6-27.5-24.4c0-19.3,17.8-26.1,34.3-26.1c5.9,0,11.7,0.6,17.2,1.8v-2.8c0-17.3-35.6-7.2-44.2-3.8V89.3
	c14.8-4.9,32.7-7.1,47.9-3.5c18.1,4.3,24.3,17.6,24.3,35.1V143.1z M582.9,141.4c0,11.1,16.2,8.1,22.6,3.6v-10.7
	C598.5,131.8,582.9,131.1,582.9,141.4z"/>
<path class="st1" d="M486.3,97.2c11.4-19.1,42.8-16.5,56,0.2c9.5,12,11.2,29.6,6.9,44c-7.6,25.7-41.7,36.6-59.6,17.9v36.1l-28,6.6
	V86.5h24.7V97.2z M522.6,126.1c0-21.8-25.3-25.1-33-9.1v18.1C497.3,151.2,522.6,147.9,522.6,126.1z"/>
</svg>
